<svg width="772" height="281" viewBox="0 0 772 281" fill="none" xmlns="http://www.w3.org/2000/svg">  
  <g clip-path="url(#clip0)">
    <path d="M105.445 0L135.37 51.1821L166.255 0H105.445Z" fill="url(#paint0_linear)"></path>
    <path d="M31.6011 141.208L0.738281 192.391H61.5268L31.6011 141.208Z" fill="white"></path>
    <path d="M53.4178 0H0.628418L114.141 192.391H166.385L53.4178 0Z" fill="white"></path>
    <path d="M547.398 121.721C542.192 132.394 533.686 141.104 523.14 146.562C512.595 152.019 500.572 153.931 488.854 152.017C477.135 150.102 466.346 144.461 458.086 135.931C449.825 127.401 444.533 116.435 442.995 104.661C441.456 92.886 443.752 80.9288 449.544 70.5622C455.335 60.1955 464.312 51.9713 475.145 47.1091C485.978 42.2468 498.089 41.0054 509.682 43.5689C521.276 46.1323 531.735 52.3641 539.508 61.3403L561.304 23.586C547.32 11.5366 530.199 3.71203 511.937 1.02501C493.675 -1.66201 475.026 0.899229 458.165 8.41002C441.303 15.9208 426.924 28.0716 416.706 43.4449C406.487 58.8183 400.85 76.7805 400.451 95.2365H400.32V281H442.582V177.83C460.261 190.05 481.485 196.079 502.947 194.977C524.41 193.875 544.905 185.703 561.239 171.736C577.573 157.769 588.828 138.79 593.251 117.757C597.675 96.7247 595.018 74.8194 585.694 55.4549L547.398 121.721Z" fill="white"></path>
    <path d="M723.484 121.721C718.282 132.402 709.776 141.122 699.228 146.587C688.681 152.052 676.653 153.972 664.928 152.062C653.203 150.152 642.406 144.513 634.138 135.982C625.87 127.451 620.571 116.482 619.028 104.703C617.484 92.9226 619.778 80.9588 625.569 70.5854C631.36 60.212 640.339 51.9813 651.176 47.1141C662.013 42.2469 674.13 41.0023 685.729 43.5649C697.329 46.1274 707.794 52.3607 715.572 61.3403L737.368 23.586C723.384 11.5366 706.263 3.71203 688.001 1.02501C669.739 -1.66201 651.09 0.899229 634.229 8.41002C617.367 15.9208 602.989 28.0716 592.77 43.4449C582.551 58.8183 576.914 76.7805 576.515 95.2365H576.385V281H618.647V177.83C636.325 190.05 657.549 196.079 679.011 194.977C700.474 193.875 720.969 185.703 737.303 171.736C753.637 157.769 764.892 138.79 769.316 117.757C773.739 96.7247 771.082 74.8194 761.758 55.4549L723.484 121.721Z" fill="white"></path>
    <path d="M378.809 95.2364C378.529 80.6729 374.989 66.3573 368.449 53.342C361.91 40.3267 352.537 28.9426 341.02 20.0264C329.502 11.1103 316.134 4.8888 301.896 1.81936C287.658 -1.25008 272.914 -1.08945 258.747 2.28941C244.579 5.66827 231.349 12.1795 220.029 21.3444C208.708 30.5093 199.586 42.0949 193.331 55.2496C187.076 68.4043 183.849 82.7936 183.886 97.3597C183.923 111.926 187.223 126.299 193.545 139.421L232.777 71.5635C238.311 61.1251 247.042 52.7336 257.691 47.6182C268.34 42.5029 280.347 40.9328 291.952 43.138C303.558 45.3432 314.153 51.2077 322.184 59.8723C330.215 68.5369 335.261 79.5461 336.581 91.2869C337.902 103.028 335.428 114.883 329.522 125.115C323.616 135.347 314.588 143.419 303.762 148.148C292.936 152.876 280.881 154.013 269.362 151.391C257.843 148.77 247.466 142.527 239.752 133.579L217.956 171.356C234.245 185.449 254.75 193.737 276.255 194.92C297.761 196.104 319.05 190.116 336.787 177.895V193.306H379.049V95.2146L378.809 95.2364Z" fill="white"></path>
  </g>
  <defs>
    <linearGradient id="paint0_linear" x1="105.445" y1="25.591" x2="166.255" y2="25.591" gradientUnits="userSpaceOnUse">
      <stop stop-color="#F27657"></stop>
      <stop offset="1" stop-color="#EF5058"></stop>
    </linearGradient>    
  </defs>
</svg>